<svg class="diagram-root" style="background: #f5f6f6" xmlns="http://www.w3.org/2000/svg" xmlns:xlink="http://www.w3.org/1999/xlink"><style>.diagram-root { font-family: "Helvetica Neue", sans-serif; font-size: 12px; } .t { overflow: visible; } .t-bg { y: 40; fill: #fff;   } .th { fill: #005aa0;   } .tht { fill: #fff; font-size: 14px;  } .tf { fill: #323c46; overflow: visible; } .tf.pk { fill: #005aa0; font-weight: bold; } .tf.fk { font-weight: bold; } .ty { fill: #adb1b5; font-weight: normal; text-anchor: end; } .r { fill: transparent; stroke: #c3c3c3; stroke-width: 1; } .l { stroke: 1; } .i { fill: #c2c7ce; stroke: #c2c7ce; } .i.ix { fill: #afb3b6; stroke: #000; } .fa { fill: transparent; overflow: visible; } .fa .bg.hover { fill: #f7f7f7; } .c { cy: 12; r: 4; stroke: #d2d2dc; fill: #d2d2dc; } .hr { fill: transparent; stroke: #323c46; stroke-opacity: 0.035; stroke-width: 13; } .dc { stroke: #fa5a3c; fill: #fa5a3c; } .x { stroke: white; stroke-width: 1; } .hl .th { fill: #1b9bff; } .hl .tht {  } .fhl .bg { fill: #e7f4ff; } .fhls .bg {  } .r.hl { stroke: #1b9bff; } .dim { opacity: 0.25; }</style><g class="drawing-wrapper" transform="translate(-204, 10) scale(1,1)"><g class="rs"><path d="M 382 314 m -1, 0 a 1,1 0 1,0 2,0 a 1,1 0 1,0 -2,0 M 382 314 m -0.5, 0 a 0.5,0.5 0 1,0 1,0 a 0.5,0.5 0 1,0 -1,0  M382 314 L382 314 394 314 M 382 320 m -1, 0 a 1,1 0 1,0 2,0 a 1,1 0 1,0 -2,0 M 382 320 m -0.5, 0 a 0.5,0.5 0 1,0 1,0 a 0.5,0.5 0 1,0 -1,0  M382 320 L382 320 389 314 382 308 M 382 308 m -1, 0 a 1,1 0 1,0 2,0 a 1,1 0 1,0 -2,0 M 382 308 m -0.5, 0 a 0.5,0.5 0 1,0 1,0 a 0.5,0.5 0 1,0 -1,0  M394 314 Q 432.25 314, 470.5 408 T 547 502 M 559 502 m -1, 0 a 1,1 0 1,0 2,0 a 1,1 0 1,0 -2,0 M 559 502 m -0.5, 0 a 0.5,0.5 0 1,0 1,0 a 0.5,0.5 0 1,0 -1,0  M559 502 L559 502 547 502 M553 508 L553 508 553 496" id="h2497856765" class="r"></path><path d="M 380 510 m -1, 0 a 1,1 0 1,0 2,0 a 1,1 0 1,0 -2,0 M 380 510 m -0.5, 0 a 0.5,0.5 0 1,0 1,0 a 0.5,0.5 0 1,0 -1,0  M380 510 L380 510 392 510 M 380 516 m -1, 0 a 1,1 0 1,0 2,0 a 1,1 0 1,0 -2,0 M 380 516 m -0.5, 0 a 0.5,0.5 0 1,0 1,0 a 0.5,0.5 0 1,0 -1,0  M380 516 L380 516 387 510 380 504 M 380 504 m -1, 0 a 1,1 0 1,0 2,0 a 1,1 0 1,0 -2,0 M 380 504 m -0.5, 0 a 0.5,0.5 0 1,0 1,0 a 0.5,0.5 0 1,0 -1,0  M392 510 Q 430.75 510, 469.5 506 T 547 502 M 559 502 m -1, 0 a 1,1 0 1,0 2,0 a 1,1 0 1,0 -2,0 M 559 502 m -0.5, 0 a 0.5,0.5 0 1,0 1,0 a 0.5,0.5 0 1,0 -1,0  M559 502 L559 502 547 502 M553 508 L553 508 553 496" id="h3963975035" class="r"></path><path d="M 388 139 m -1, 0 a 1,1 0 1,0 2,0 a 1,1 0 1,0 -2,0 M 388 139 m -0.5, 0 a 0.5,0.5 0 1,0 1,0 a 0.5,0.5 0 1,0 -1,0  M388 139 L388 139 400 139 M 388 145 m -1, 0 a 1,1 0 1,0 2,0 a 1,1 0 1,0 -2,0 M 388 145 m -0.5, 0 a 0.5,0.5 0 1,0 1,0 a 0.5,0.5 0 1,0 -1,0  M388 145 L388 145 395 139 388 133 M 388 133 m -1, 0 a 1,1 0 1,0 2,0 a 1,1 0 1,0 -2,0 M 388 133 m -0.5, 0 a 0.5,0.5 0 1,0 1,0 a 0.5,0.5 0 1,0 -1,0  M400 139 Q 436.75 139, 473.5 320.5 T 547 502 M 559 502 m -1, 0 a 1,1 0 1,0 2,0 a 1,1 0 1,0 -2,0 M 559 502 m -0.5, 0 a 0.5,0.5 0 1,0 1,0 a 0.5,0.5 0 1,0 -1,0  M559 502 L559 502 547 502 M553 508 L553 508 553 496" id="h1809289970" class="r"></path><path d="M 870 77 m -1, 0 a 1,1 0 1,0 2,0 a 1,1 0 1,0 -2,0 M 870 77 m -0.5, 0 a 0.5,0.5 0 1,0 1,0 a 0.5,0.5 0 1,0 -1,0  M870 77 L870 77 858 77 M 870 83 m -1, 0 a 1,1 0 1,0 2,0 a 1,1 0 1,0 -2,0 M 870 83 m -0.5, 0 a 0.5,0.5 0 1,0 1,0 a 0.5,0.5 0 1,0 -1,0  M870 83 L870 83 863 77 870 71 M 870 71 m -1, 0 a 1,1 0 1,0 2,0 a 1,1 0 1,0 -2,0 M 870 71 m -0.5, 0 a 0.5,0.5 0 1,0 1,0 a 0.5,0.5 0 1,0 -1,0  M858 77 Q 831.25 77, 804.5 289.5 T 751 502 M 739 502 m -1, 0 a 1,1 0 1,0 2,0 a 1,1 0 1,0 -2,0 M 739 502 m -0.5, 0 a 0.5,0.5 0 1,0 1,0 a 0.5,0.5 0 1,0 -1,0  M739 502 L739 502 751 502 M745 508 L745 508 745 496" id="h4227320063" class="r"></path><path d="M 870 180 m -1, 0 a 1,1 0 1,0 2,0 a 1,1 0 1,0 -2,0 M 870 180 m -0.5, 0 a 0.5,0.5 0 1,0 1,0 a 0.5,0.5 0 1,0 -1,0  M870 180 L870 180 858 180 M 870 186 m -1, 0 a 1,1 0 1,0 2,0 a 1,1 0 1,0 -2,0 M 870 186 m -0.5, 0 a 0.5,0.5 0 1,0 1,0 a 0.5,0.5 0 1,0 -1,0  M870 186 L870 186 863 180 870 174 M 870 174 m -1, 0 a 1,1 0 1,0 2,0 a 1,1 0 1,0 -2,0 M 870 174 m -0.5, 0 a 0.5,0.5 0 1,0 1,0 a 0.5,0.5 0 1,0 -1,0  M858 180 Q 831.25 180, 804.5 341 T 751 502 M 739 502 m -1, 0 a 1,1 0 1,0 2,0 a 1,1 0 1,0 -2,0 M 739 502 m -0.5, 0 a 0.5,0.5 0 1,0 1,0 a 0.5,0.5 0 1,0 -1,0  M739 502 L739 502 751 502 M745 508 L745 508 745 496" id="h3243914728" class="r"></path><path d="M 871 698 m -1, 0 a 1,1 0 1,0 2,0 a 1,1 0 1,0 -2,0 M 871 698 m -0.5, 0 a 0.5,0.5 0 1,0 1,0 a 0.5,0.5 0 1,0 -1,0  M871 698 L871 698 859 698 M 871 704 m -1, 0 a 1,1 0 1,0 2,0 a 1,1 0 1,0 -2,0 M 871 704 m -0.5, 0 a 0.5,0.5 0 1,0 1,0 a 0.5,0.5 0 1,0 -1,0  M871 704 L871 704 864 698 871 692 M 871 692 m -1, 0 a 1,1 0 1,0 2,0 a 1,1 0 1,0 -2,0 M 871 692 m -0.5, 0 a 0.5,0.5 0 1,0 1,0 a 0.5,0.5 0 1,0 -1,0  M859 698 Q 832 698, 805 600 T 751 502 M 739 502 m -1, 0 a 1,1 0 1,0 2,0 a 1,1 0 1,0 -2,0 M 739 502 m -0.5, 0 a 0.5,0.5 0 1,0 1,0 a 0.5,0.5 0 1,0 -1,0  M739 502 L739 502 751 502 M745 508 L745 508 745 496" id="h2469098432" class="r"></path><path d="M 859 376 m -1, 0 a 1,1 0 1,0 2,0 a 1,1 0 1,0 -2,0 M 859 376 m -0.5, 0 a 0.5,0.5 0 1,0 1,0 a 0.5,0.5 0 1,0 -1,0  M859 376 L859 376 847 376 M 859 382 m -1, 0 a 1,1 0 1,0 2,0 a 1,1 0 1,0 -2,0 M 859 382 m -0.5, 0 a 0.5,0.5 0 1,0 1,0 a 0.5,0.5 0 1,0 -1,0  M859 382 L859 382 852 376 859 370 M 859 370 m -1, 0 a 1,1 0 1,0 2,0 a 1,1 0 1,0 -2,0 M 859 370 m -0.5, 0 a 0.5,0.5 0 1,0 1,0 a 0.5,0.5 0 1,0 -1,0  M847 376 Q 823 376, 799 439 T 751 502 M 739 502 m -1, 0 a 1,1 0 1,0 2,0 a 1,1 0 1,0 -2,0 M 739 502 m -0.5, 0 a 0.5,0.5 0 1,0 1,0 a 0.5,0.5 0 1,0 -1,0  M739 502 L739 502 751 502 M745 508 L745 508 745 496" id="h2262324836" class="r"></path><path d="M 859 515 m -1, 0 a 1,1 0 1,0 2,0 a 1,1 0 1,0 -2,0 M 859 515 m -0.5, 0 a 0.5,0.5 0 1,0 1,0 a 0.5,0.5 0 1,0 -1,0  M859 515 L859 515 847 515 M 859 521 m -1, 0 a 1,1 0 1,0 2,0 a 1,1 0 1,0 -2,0 M 859 521 m -0.5, 0 a 0.5,0.5 0 1,0 1,0 a 0.5,0.5 0 1,0 -1,0  M859 521 L859 521 852 515 859 509 M 859 509 m -1, 0 a 1,1 0 1,0 2,0 a 1,1 0 1,0 -2,0 M 859 509 m -0.5, 0 a 0.5,0.5 0 1,0 1,0 a 0.5,0.5 0 1,0 -1,0  M847 515 Q 823 515, 799 508.5 T 751 502 M 739 502 m -1, 0 a 1,1 0 1,0 2,0 a 1,1 0 1,0 -2,0 M 739 502 m -0.5, 0 a 0.5,0.5 0 1,0 1,0 a 0.5,0.5 0 1,0 -1,0  M739 502 L739 502 751 502 M745 508 L745 508 745 496" id="h710519450" class="r"></path></g><g class="hrs"></g><g class="ts"><svg width="154" height="150" x="228" y="257" id="h959649724" class="t"><rect height="40" width="154" class="th"></rect><text x="13" y="25" class="tht">Total</text><rect height="110" width="154" class="t-bg" y="40"></rect><text x="13" y="61" class="tf fk">seriesId<tspan x="141" class="ty">varchar(25)</tspan></text><text x="13" y="86" class="tf">date<tspan x="141" class="ty">varchar(20)</tspan></text><text x="13" y="111" class="tf">amount<tspan x="141" class="ty">float</tspan></text><text x="13" y="136" class="tf">frequency<tspan x="141" class="ty">varchar(2)</tspan></text></svg><svg width="154" height="150" x="226" y="453" id="h1595952855" class="t"><rect height="40" width="154" class="th"></rect><text x="13" y="25" class="tht">SEDS</text><rect height="110" width="154" class="t-bg" y="40"></rect><text x="13" y="61" class="tf fk">seriesId<tspan x="141" class="ty">varchar(25)</tspan></text><text x="13" y="86" class="tf">date<tspan x="141" class="ty">varchar(20)</tspan></text><text x="13" y="111" class="tf">amount<tspan x="141" class="ty">float</tspan></text><text x="13" y="136" class="tf">frequency<tspan x="141" class="ty">varchar(2)</tspan></text></svg><svg width="154" height="150" x="234" y="82" id="h960441586" class="t"><rect height="40" width="154" class="th"></rect><text x="13" y="25" class="tht">Electricity</text><rect height="110" width="154" class="t-bg" y="40"></rect><text x="13" y="61" class="tf fk">seriesId<tspan x="141" class="ty">varchar(25)</tspan></text><text x="13" y="86" class="tf">date<tspan x="141" class="ty">varchar(20)</tspan></text><text x="13" y="111" class="tf">amount<tspan x="141" class="ty">float</tspan></text><text x="13" y="136" class="tf">frequency<tspan x="141" class="ty">varchar(2)</tspan></text></svg><svg width="154" height="150" x="870" y="20" id="h827865988" class="t"><rect height="40" width="154" class="th"></rect><text x="13" y="25" class="tht">Coal</text><rect height="110" width="154" class="t-bg" y="40"></rect><text x="13" y="61" class="tf fk">seriesId<tspan x="141" class="ty">varchar(25)</tspan></text><text x="13" y="86" class="tf">date<tspan x="141" class="ty">varchar(20)</tspan></text><text x="13" y="111" class="tf">amount<tspan x="141" class="ty">float</tspan></text><text x="13" y="136" class="tf">frequency<tspan x="141" class="ty">varchar(2)</tspan></text></svg><svg width="154" height="150" x="870" y="123" id="h747609341" class="t"><rect height="40" width="154" class="th"></rect><text x="13" y="25" class="tht">Emiss</text><rect height="110" width="154" class="t-bg" y="40"></rect><text x="13" y="61" class="tf fk">seriesId<tspan x="141" class="ty">varchar(25)</tspan></text><text x="13" y="86" class="tf">date<tspan x="141" class="ty">varchar(20)</tspan></text><text x="13" y="111" class="tf">amount<tspan x="141" class="ty">float</tspan></text><text x="13" y="136" class="tf">frequency<tspan x="141" class="ty">varchar(2)</tspan></text></svg><svg width="154" height="150" x="871" y="641" id="h2211480149" class="t"><rect height="40" width="154" class="th"></rect><text x="13" y="25" class="tht">NaturalGas</text><rect height="110" width="154" class="t-bg" y="40"></rect><text x="13" y="61" class="tf fk">seriesId<tspan x="141" class="ty">varchar(25)</tspan></text><text x="13" y="86" class="tf">date<tspan x="141" class="ty">varchar(20)</tspan></text><text x="13" y="111" class="tf">amount<tspan x="141" class="ty">float</tspan></text><text x="13" y="136" class="tf">frequency<tspan x="141" class="ty">varchar(2)</tspan></text></svg><svg width="154" height="150" x="859" y="319" id="h1877673528" class="t"><rect height="40" width="154" class="th"></rect><text x="13" y="25" class="tht">Petrolium</text><rect height="110" width="154" class="t-bg" y="40"></rect><text x="13" y="61" class="tf fk">seriesId<tspan x="141" class="ty">varchar(25)</tspan></text><text x="13" y="86" class="tf">date<tspan x="141" class="ty">varchar(20)</tspan></text><text x="13" y="111" class="tf">amount<tspan x="141" class="ty">float</tspan></text><text x="13" y="136" class="tf">frequency<tspan x="141" class="ty">varchar(2)</tspan></text></svg><svg width="154" height="150" x="859" y="458" id="h2916287669" class="t"><rect height="40" width="154" class="th"></rect><text x="13" y="25" class="tht">PetroliumImports</text><rect height="110" width="154" class="t-bg" y="40"></rect><text x="13" y="61" class="tf fk">seriesId<tspan x="141" class="ty">varchar(25)</tspan></text><text x="13" y="86" class="tf">date<tspan x="141" class="ty">varchar(20)</tspan></text><text x="13" y="111" class="tf">amount<tspan x="141" class="ty">float</tspan></text><text x="13" y="136" class="tf">frequency<tspan x="141" class="ty">varchar(2)</tspan></text></svg><svg width="180" height="150" x="559" y="445" id="h3963657663" class="t"><rect height="40" width="180" class="th"></rect><text x="13" y="25" class="tht">SeriesNames</text><rect height="110" width="180" class="t-bg" y="40"></rect><text x="13" y="61" class="tf pk">seriesId<tspan x="167" class="ty">varchar(25)</tspan></text><path d="M7,14A2,2 0 0,1 5,12A2,2 0 0,1 7,10A2,2 0 0,1 9,12A2,2 0 0,1 7,14M12.65,10C11.83,7.67 9.61,6 7, 6A6, 6 0 0, 0 1, 12A6, 6 0 0, 0 7, 18C9.61, 18 11.83, 16.33 12.65, 14H17V18H21V14H23V10H12.65Z" class="i pk" transform="translate(85, 48) scale(0.65)"></path><text x="13" y="86" class="tf">name<tspan x="167" class="ty">varchar(50)</tspan></text><text x="13" y="111" class="tf">units<tspan x="167" class="ty">varchar(20)</tspan></text><text x="13" y="136" class="tf">geography<tspan x="167" class="ty">varchar(10)?</tspan></text></svg></g></g><text class="qdbd-link" x="10" y="20">www.quickdatabasediagrams.com</text></svg>